<?xml version="1.0" encoding="UTF-8"?>
<!DOCTYPE svg PUBLIC "-//W3C//DTD SVG 1.1//EN" "http://www.w3.org/Graphics/SVG/1.1/DTD/svg11.dtd">
<svg version="1.2" width="76.2mm" height="6.35mm" viewBox="0 0 7620 635" preserveAspectRatio="xMidYMid" fill-rule="evenodd" stroke-width="28.222" stroke-linejoin="round" xmlns="http://www.w3.org/2000/svg" xmlns:ooo="http://xml.openoffice.org/svg/export" xmlns:xlink="http://www.w3.org/1999/xlink" xmlns:presentation="http://sun.com/xmlns/staroffice/presentation" xmlns:smil="http://www.w3.org/2001/SMIL20/" xmlns:anim="urn:oasis:names:tc:opendocument:xmlns:animation:1.0" xml:space="preserve">
 <defs class="ClipPathGroup">
  <clipPath id="presentation_clip_path" clipPathUnits="userSpaceOnUse">
   <rect x="0" y="0" width="7620" height="635"/>
  </clipPath>
  <clipPath id="presentation_clip_path_shrink" clipPathUnits="userSpaceOnUse">
   <rect x="7" y="0" width="7605" height="634"/>
  </clipPath>
 </defs>
 <defs class="TextShapeIndex">
  <g ooo:slide="id1" ooo:id-list="id3"/>
 </defs>
 <defs class="EmbeddedBulletChars">
  <g id="bullet-char-template-57356" transform="scale(0.00048828125,-0.00048828125)">
   <path d="M 580,1141 L 1163,571 580,0 -4,571 580,1141 Z"/>
  </g>
  <g id="bullet-char-template-57354" transform="scale(0.00048828125,-0.00048828125)">
   <path d="M 8,1128 L 1137,1128 1137,0 8,0 8,1128 Z"/>
  </g>
  <g id="bullet-char-template-10146" transform="scale(0.00048828125,-0.00048828125)">
   <path d="M 174,0 L 602,739 174,1481 1456,739 174,0 Z M 1358,739 L 309,1346 659,739 1358,739 Z"/>
  </g>
  <g id="bullet-char-template-10132" transform="scale(0.00048828125,-0.00048828125)">
   <path d="M 2015,739 L 1276,0 717,0 1260,543 174,543 174,936 1260,936 717,1481 1274,1481 2015,739 Z"/>
  </g>
  <g id="bullet-char-template-10007" transform="scale(0.00048828125,-0.00048828125)">
   <path d="M 0,-2 C -7,14 -16,27 -25,37 L 356,567 C 262,823 215,952 215,954 215,979 228,992 255,992 264,992 276,990 289,987 310,991 331,999 354,1012 L 381,999 492,748 772,1049 836,1024 860,1049 C 881,1039 901,1025 922,1006 886,937 835,863 770,784 769,783 710,716 594,584 L 774,223 C 774,196 753,168 711,139 L 727,119 C 717,90 699,76 672,76 641,76 570,178 457,381 L 164,-76 C 142,-110 111,-127 72,-127 30,-127 9,-110 8,-76 1,-67 -2,-52 -2,-32 -2,-23 -1,-13 0,-2 Z"/>
  </g>
  <g id="bullet-char-template-10004" transform="scale(0.00048828125,-0.00048828125)">
   <path d="M 285,-33 C 182,-33 111,30 74,156 52,228 41,333 41,471 41,549 55,616 82,672 116,743 169,778 240,778 293,778 328,747 346,684 L 369,508 C 377,444 397,411 428,410 L 1163,1116 C 1174,1127 1196,1133 1229,1133 1271,1133 1292,1118 1292,1087 L 1292,965 C 1292,929 1282,901 1262,881 L 442,47 C 390,-6 338,-33 285,-33 Z"/>
  </g>
  <g id="bullet-char-template-9679" transform="scale(0.00048828125,-0.00048828125)">
   <path d="M 813,0 C 632,0 489,54 383,161 276,268 223,411 223,592 223,773 276,916 383,1023 489,1130 632,1184 813,1184 992,1184 1136,1130 1245,1023 1353,916 1407,772 1407,592 1407,412 1353,268 1245,161 1136,54 992,0 813,0 Z"/>
  </g>
  <g id="bullet-char-template-8226" transform="scale(0.00048828125,-0.00048828125)">
   <path d="M 346,457 C 273,457 209,483 155,535 101,586 74,649 74,723 74,796 101,859 155,911 209,963 273,989 346,989 419,989 480,963 531,910 582,859 608,796 608,723 608,648 583,586 532,535 482,483 420,457 346,457 Z"/>
  </g>
  <g id="bullet-char-template-8211" transform="scale(0.00048828125,-0.00048828125)">
   <path d="M -4,459 L 1135,459 1135,606 -4,606 -4,459 Z"/>
  </g>
  <g id="bullet-char-template-61548" transform="scale(0.00048828125,-0.00048828125)">
   <path d="M 173,740 C 173,903 231,1043 346,1159 462,1274 601,1332 765,1332 928,1332 1067,1274 1183,1159 1299,1043 1357,903 1357,740 1357,577 1299,437 1183,322 1067,206 928,148 765,148 601,148 462,206 346,322 231,437 173,577 173,740 Z"/>
  </g>
 </defs>
 <defs class="TextEmbeddedBitmaps"/>
 <g>
  <g id="id2" class="Master_Slide">
   <g id="bg-id2" class="Background"/>
   <g id="bo-id2" class="BackgroundObjects"/>
  </g>
 </g>
 <g class="SlideGroup">
  <g>
   <g id="container-id1">
    <g id="id1" class="Slide" clip-path="url(#presentation_clip_path)">
     <g class="Page">
      <g class="Graphic">
       <g id="id3">
        <rect class="BoundingBox" stroke="none" fill="none" x="0" y="0" width="7620" height="635"/>
        <defs>
         <clipPath id="clip_path_1" clipPathUnits="userSpaceOnUse">
          <path d="M 0,0 L 7619,0 7619,634 0,634 0,0 Z"/>
         </clipPath>
        </defs>
        <g clip-path="url(#clip_path_1)">
         <path fill="rgb(0,0,0)" stroke="none" d="M 406,584 C 390,594 373,600 353,602 333,606 314,606 294,606 212,606 143,578 86,524 27,469 0,400 0,316 0,234 29,163 86,108 143,54 212,26 294,26 314,26 333,28 353,30 373,34 388,38 404,46 L 404,140 C 388,132 371,126 353,122 335,118 316,116 294,116 237,116 192,136 153,173 114,210 98,259 98,316 98,373 118,422 155,459 192,496 239,516 296,516 318,516 337,514 355,510 373,506 388,500 406,492 L 406,584 Z M 979,341 L 675,341 675,594 579,594 579,34 675,34 675,253 979,253 979,34 1075,34 1075,596 979,596 979,341 Z M 1288,34 L 1385,34 1385,596 1288,596 1288,34 Z M 2098,34 L 2098,598 2083,598 1692,234 1692,596 1596,596 1596,30 1610,30 2000,390 2000,34 2098,34 Z M 2397,122 L 2259,122 2259,34 2630,34 2630,124 2493,124 2493,596 2397,596 2397,122 Z M 2795,34 L 2891,34 2891,596 2795,596 2795,34 Z M 3738,596 L 3685,539 C 3658,563 3628,580 3597,592 3565,604 3536,610 3505,610 3473,610 3446,604 3422,594 3399,584 3379,571 3365,555 3354,543 3346,529 3340,514 3334,498 3332,484 3332,469 3332,445 3338,422 3350,396 3361,373 3385,349 3420,328 L 3465,300 3459,294 C 3438,271 3424,249 3414,230 3405,210 3401,189 3401,169 3401,152 3405,134 3410,118 3418,103 3428,89 3440,75 3454,61 3471,50 3491,42 3510,34 3532,30 3554,30 3575,30 3595,34 3612,40 3630,48 3644,56 3656,67 3669,79 3679,95 3685,110 3691,126 3695,144 3695,159 3695,191 3685,218 3667,244 3650,269 3624,293 3593,312 L 3683,414 C 3693,400 3701,385 3710,367 3718,349 3726,332 3732,314 L 3818,314 C 3809,347 3797,377 3783,404 3769,432 3756,455 3740,477 L 3848,598 3738,598 3738,596 Z M 3467,520 C 3479,524 3493,528 3507,528 3528,528 3550,524 3569,514 3591,506 3610,492 3628,477 L 3518,355 3483,377 C 3461,390 3444,404 3436,416 3426,430 3422,443 3422,457 3422,465 3424,473 3426,481 3432,488 3436,496 3440,502 3448,510 3456,516 3467,520 Z M 3544,251 C 3563,238 3581,226 3593,212 3605,199 3610,183 3610,165 3610,157 3608,152 3607,146 3605,140 3601,134 3595,128 3591,124 3585,120 3577,116 3571,114 3563,112 3556,112 3548,112 3540,114 3532,116 3524,120 3518,124 3512,128 3507,134 3503,140 3501,146 3497,153 3497,161 3497,169 3497,179 3499,191 3505,200 3508,210 3518,222 3528,234 L 3544,251 Z M 4399,451 C 4387,449 4375,449 4364,447 L 4364,596 4267,596 4267,34 4462,34 C 4536,34 4595,54 4636,91 4679,130 4699,177 4699,236 4699,302 4675,355 4630,394 4585,434 4524,453 4444,453 4426,453 4413,453 4399,451 Z M 4364,120 L 4364,361 C 4373,363 4385,365 4399,365 4413,365 4426,367 4442,367 4499,367 4540,355 4564,332 4587,308 4599,277 4599,238 4599,206 4587,179 4566,155 4544,132 4507,120 4454,120 L 4364,120 Z M 5168,596 L 5121,486 4891,486 4844,596 4736,596 4999,26 5013,26 5275,596 5168,596 Z M 5085,402 L 5005,214 4926,402 5085,402 Z M 5544,420 C 5530,418 5519,416 5507,414 L 5507,594 5411,594 5411,34 5623,34 C 5697,34 5754,50 5793,83 5832,116 5852,161 5852,220 5852,263 5842,298 5823,328 5803,357 5776,381 5740,396 L 5864,596 5756,596 5648,420 C 5638,422 5630,422 5621,422 L 5591,422 C 5574,422 5558,422 5544,420 Z M 5509,120 L 5509,330 C 5521,332 5532,334 5546,334 5560,336 5575,336 5593,336 5650,336 5689,326 5715,306 5740,287 5752,257 5752,220 5752,191 5742,165 5723,148 5701,130 5666,120 5615,120 L 5509,120 Z M 6113,310 L 6113,596 6017,596 6017,34 6113,34 6113,283 6352,34 6476,34 6223,293 6487,596 6362,596 6113,310 Z M 6986,596 L 6619,596 6619,34 6978,34 6978,124 6711,124 6711,255 6964,255 6964,343 6711,343 6711,508 6986,508 6986,596 Z M 7346,422 C 7329,422 7313,422 7299,420 7286,418 7274,416 7262,414 L 7262,594 7166,594 7166,34 7378,34 C 7452,34 7509,50 7548,83 7588,116 7607,161 7607,220 7607,263 7597,298 7578,328 7558,357 7531,381 7495,396 L 7619,596 7511,596 7403,420 C 7393,422 7386,422 7376,422 L 7346,422 Z M 7264,120 L 7264,330 C 7276,332 7288,334 7301,334 7315,336 7331,336 7348,336 7405,336 7444,326 7470,306 7495,287 7507,257 7507,220 7507,191 7497,165 7478,148 7456,130 7421,120 7370,120 L 7264,120 Z"/>
        </g>
       </g>
      </g>
     </g>
    </g>
   </g>
  </g>
 </g>
</svg>